{
 "cells": [
  {
   "cell_type": "markdown",
   "metadata": {},
   "source": [
    "# Naive Spatial Compression \n",
    "\n",
    "Go through data and reduce resolution"
   ]
  },
  {
   "cell_type": "markdown",
   "metadata": {},
   "source": [
    "\n",
    "\n",
    "### target resolution 2: 54x30"
   ]
  },
  {
   "cell_type": "code",
   "execution_count": 1,
   "metadata": {},
   "outputs": [],
   "source": [
    "import os\n",
    "import subprocess\n",
    "\n",
    "resolution = (107,60)\n",
    "\n",
    "DATA_SOURCE = \"data_right_left_up_down_1200\"\n",
    "DATA_TARGET = f\"data_{resolution[1]}_right_left_up_down_1200\"\n",
    "\n",
    "if DATA_TARGET not in os.listdir():\n",
    "    os.mkdir(DATA_TARGET)\n",
    "    os.mkdir(DATA_TARGET + \"/test\")\n",
    "    os.mkdir(DATA_TARGET + \"/train\")\n",
    "    os.mkdir(DATA_TARGET + \"/validation\")\n",
    "    status = subprocess.call(f'cp {DATA_SOURCE + \"/indx_df.csv\"} {DATA_TARGET + \"/indx_df.csv\"}', shell=True) \n"
   ]
  },
  {
   "cell_type": "code",
   "execution_count": 2,
   "metadata": {},
   "outputs": [
    {
     "name": "stderr",
     "output_type": "stream",
     "text": [
      "ffmpeg version 4.4.2-0ubuntu0.22.04.1 Copyright (c) 2000-2021 the FFmpeg developers\n",
      "  built with gcc 11 (Ubuntu 11.2.0-19ubuntu1)\n",
      "  configuration: --prefix=/usr --extra-version=0ubuntu0.22.04.1 --toolchain=hardened --libdir=/usr/lib/x86_64-linux-gnu --incdir=/usr/include/x86_64-linux-gnu --arch=amd64 --enable-gpl --disable-stripping --enable-gnutls --enable-ladspa --enable-libaom --enable-libass --enable-libbluray --enable-libbs2b --enable-libcaca --enable-libcdio --enable-libcodec2 --enable-libdav1d --enable-libflite --enable-libfontconfig --enable-libfreetype --enable-libfribidi --enable-libgme --enable-libgsm --enable-libjack --enable-libmp3lame --enable-libmysofa --enable-libopenjpeg --enable-libopenmpt --enable-libopus --enable-libpulse --enable-librabbitmq --enable-librubberband --enable-libshine --enable-libsnappy --enable-libsoxr --enable-libspeex --enable-libsrt --enable-libssh --enable-libtheora --enable-libtwolame --enable-libvidstab --enable-libvorbis --enable-libvpx --enable-libwebp --enable-libx265 --enable-libxml2 --enable-libxvid --enable-libzimg --enable-libzmq --enable-libzvbi --enable-lv2 --enable-omx --enable-openal --enable-opencl --enable-opengl --enable-sdl2 --enable-pocketsphinx --enable-librsvg --enable-libmfx --enable-libdc1394 --enable-libdrm --enable-libiec61883 --enable-chromaprint --enable-frei0r --enable-libx264 --enable-shared\n",
      "  libavutil      56. 70.100 / 56. 70.100\n",
      "  libavcodec     58.134.100 / 58.134.100\n",
      "  libavformat    58. 76.100 / 58. 76.100\n",
      "  libavdevice    58. 13.100 / 58. 13.100\n",
      "  libavfilter     7.110.100 /  7.110.100\n",
      "  libswscale      5.  9.100 /  5.  9.100\n",
      "  libswresample   3.  9.100 /  3.  9.100\n",
      "  libpostproc    55.  9.100 / 55.  9.100\n",
      "Input #0, avi, from 'data_right_left_up_down_1200/test/144575.avi':\n",
      "  Metadata:\n",
      "    title           : (C) 2017 Twenty Billion Neurons GmbH, 20BN-Someting-Something-Dataset V2\n",
      "    software        : Lavf58.76.100\n",
      "  Duration: 00:00:04.17, start: 0.000000, bitrate: 416 kb/s\n",
      "  Stream #0:0: Video: mpeg4 (Simple Profile) (FMP4 / 0x34504D46), yuv420p, 427x240 [SAR 1:1 DAR 427:240], 410 kb/s, 12 fps, 12 tbr, 12 tbn, 12 tbc\n",
      "Codec AVOption preset (Configuration preset) specified for output file #0 (data_60_right_left_up_down_1200/test/144575.avi) has not been used for any stream. The most likely reason is either wrong type (e.g. a video option with no video streams) or that it is a private option of some encoder which was not actually used for any stream.\n",
      "Codec AVOption crf (Select the quality for constant quality mode) specified for output file #0 (data_60_right_left_up_down_1200/test/144575.avi) has not been used for any stream. The most likely reason is either wrong type (e.g. a video option with no video streams) or that it is a private option of some encoder which was not actually used for any stream.\n",
      "Stream mapping:\n",
      "  Stream #0:0 -> #0:0 (mpeg4 (native) -> mpeg4 (native))\n",
      "Press [q] to stop, [?] for help\n",
      "[mpeg4 @ 0x558550ba6400] Invalid pixel aspect ratio 427/426, limit is 255/255 reducing\n",
      "[mpeg4 @ 0x558550ba6400] too many threads/slices (9), reducing to 8\n",
      "Output #0, avi, to 'data_60_right_left_up_down_1200/test/144575.avi':\n",
      "  Metadata:\n",
      "    INAM            : (C) 2017 Twenty Billion Neurons GmbH, 20BN-Someting-Something-Dataset V2\n",
      "    software        : Lavf58.76.100\n",
      "    ISFT            : Lavf58.76.100\n",
      "  Stream #0:0: Video: mpeg4 (FMP4 / 0x34504D46), yuv420p(tv, progressive), 213x120 [SAR 255:254 DAR 3621:2032], q=2-31, 200 kb/s, SAR 427:426 DAR 427:240, 12 fps, 12 tbn\n",
      "    Metadata:\n",
      "      encoder         : Lavc58.134.100 mpeg4\n",
      "    Side data:\n",
      "      cpb: bitrate max/min/avg: 0/0/200000 buffer size: 0 vbv_delay: N/A\n",
      "frame=   50 fps=0.0 q=4.4 Lsize=     165kB time=00:00:04.16 bitrate= 324.2kbits/s speed=33.8x    \n",
      "video:158kB audio:0kB subtitle:0kB other streams:0kB global headers:0kB muxing overhead: 4.368896%\n",
      "ffmpeg version 4.4.2-0ubuntu0.22.04.1 Copyright (c) 2000-2021 the FFmpeg developers\n",
      "  built with gcc 11 (Ubuntu 11.2.0-19ubuntu1)\n",
      "  configuration: --prefix=/usr --extra-version=0ubuntu0.22.04.1 --toolchain=hardened --libdir=/usr/lib/x86_64-linux-gnu --incdir=/usr/include/x86_64-linux-gnu --arch=amd64 --enable-gpl --disable-stripping --enable-gnutls --enable-ladspa --enable-libaom --enable-libass --enable-libbluray --enable-libbs2b --enable-libcaca --enable-libcdio --enable-libcodec2 --enable-libdav1d --enable-libflite --enable-libfontconfig --enable-libfreetype --enable-libfribidi --enable-libgme --enable-libgsm --enable-libjack --enable-libmp3lame --enable-libmysofa --enable-libopenjpeg --enable-libopenmpt --enable-libopus --enable-libpulse --enable-librabbitmq --enable-librubberband --enable-libshine --enable-libsnappy --enable-libsoxr --enable-libspeex --enable-libsrt --enable-libssh --enable-libtheora --enable-libtwolame --enable-libvidstab --enable-libvorbis --enable-libvpx --enable-libwebp --enable-libx265 --enable-libxml2 --enable-libxvid --enable-libzimg --enable-libzmq --enable-libzvbi --enable-lv2 --enable-omx --enable-openal --enable-opencl --enable-opengl --enable-sdl2 --enable-pocketsphinx --enable-librsvg --enable-libmfx --enable-libdc1394 --enable-libdrm --enable-libiec61883 --enable-chromaprint --enable-frei0r --enable-libx264 --enable-shared\n",
      "  libavutil      56. 70.100 / 56. 70.100\n",
      "  libavcodec     58.134.100 / 58.134.100\n",
      "  libavformat    58. 76.100 / 58. 76.100\n",
      "  libavdevice    58. 13.100 / 58. 13.100\n",
      "  libavfilter     7.110.100 /  7.110.100\n",
      "  libswscale      5.  9.100 /  5.  9.100\n",
      "  libswresample   3.  9.100 /  3.  9.100\n",
      "  libpostproc    55.  9.100 / 55.  9.100\n",
      "Input #0, avi, from 'data_right_left_up_down_1200/train/118275.avi':\n",
      "  Metadata:\n",
      "    title           : (C) 2017 Twenty Billion Neurons GmbH, 20BN-Someting-Something-Dataset V2\n",
      "    software        : Lavf58.76.100\n",
      "  Duration: 00:00:03.42, start: 0.000000, bitrate: 273 kb/s\n",
      "  Stream #0:0: Video: mpeg4 (Simple Profile) (FMP4 / 0x34504D46), yuv420p, 293x240 [SAR 1:1 DAR 293:240], 263 kb/s, 12 fps, 12 tbr, 12 tbn, 12 tbc\n",
      "Codec AVOption preset (Configuration preset) specified for output file #0 (data_60_right_left_up_down_1200/train/118275.avi) has not been used for any stream. The most likely reason is either wrong type (e.g. a video option with no video streams) or that it is a private option of some encoder which was not actually used for any stream.\n",
      "Codec AVOption crf (Select the quality for constant quality mode) specified for output file #0 (data_60_right_left_up_down_1200/train/118275.avi) has not been used for any stream. The most likely reason is either wrong type (e.g. a video option with no video streams) or that it is a private option of some encoder which was not actually used for any stream.\n",
      "Stream mapping:\n",
      "  Stream #0:0 -> #0:0 (mpeg4 (native) -> mpeg4 (native))\n",
      "Press [q] to stop, [?] for help\n",
      "[mpeg4 @ 0x55c9792934c0] Invalid pixel aspect ratio 293/426, limit is 255/255 reducing\n",
      "[mpeg4 @ 0x55c9792934c0] too many threads/slices (9), reducing to 8\n",
      "Output #0, avi, to 'data_60_right_left_up_down_1200/train/118275.avi':\n",
      "  Metadata:\n",
      "    INAM            : (C) 2017 Twenty Billion Neurons GmbH, 20BN-Someting-Something-Dataset V2\n",
      "    software        : Lavf58.76.100\n",
      "    ISFT            : Lavf58.76.100\n",
      "  Stream #0:0: Video: mpeg4 (FMP4 / 0x34504D46), yuv420p(tv, progressive), 213x120 [SAR 152:221 DAR 1349:1105], q=2-31, 200 kb/s, SAR 293:426 DAR 293:240, 12 fps, 12 tbn\n",
      "    Metadata:\n",
      "      encoder         : Lavc58.134.100 mpeg4\n",
      "    Side data:\n",
      "      cpb: bitrate max/min/avg: 0/0/200000 buffer size: 0 vbv_delay: N/A\n",
      "frame=   41 fps=0.0 q=2.0 Lsize=      65kB time=00:00:03.41 bitrate= 156.5kbits/s speed=64.6x    \n",
      "video:59kB audio:0kB subtitle:0kB other streams:0kB global headers:0kB muxing overhead: 11.414094%\n",
      "ffmpeg version 4.4.2-0ubuntu0.22.04.1 Copyright (c) 2000-2021 the FFmpeg developers\n",
      "  built with gcc 11 (Ubuntu 11.2.0-19ubuntu1)\n",
      "  configuration: --prefix=/usr --extra-version=0ubuntu0.22.04.1 --toolchain=hardened --libdir=/usr/lib/x86_64-linux-gnu --incdir=/usr/include/x86_64-linux-gnu --arch=amd64 --enable-gpl --disable-stripping --enable-gnutls --enable-ladspa --enable-libaom --enable-libass --enable-libbluray --enable-libbs2b --enable-libcaca --enable-libcdio --enable-libcodec2 --enable-libdav1d --enable-libflite --enable-libfontconfig --enable-libfreetype --enable-libfribidi --enable-libgme --enable-libgsm --enable-libjack --enable-libmp3lame --enable-libmysofa --enable-libopenjpeg --enable-libopenmpt --enable-libopus --enable-libpulse --enable-librabbitmq --enable-librubberband --enable-libshine --enable-libsnappy --enable-libsoxr --enable-libspeex --enable-libsrt --enable-libssh --enable-libtheora --enable-libtwolame --enable-libvidstab --enable-libvorbis --enable-libvpx --enable-libwebp --enable-libx265 --enable-libxml2 --enable-libxvid --enable-libzimg --enable-libzmq --enable-libzvbi --enable-lv2 --enable-omx --enable-openal --enable-opencl --enable-opengl --enable-sdl2 --enable-pocketsphinx --enable-librsvg --enable-libmfx --enable-libdc1394 --enable-libdrm --enable-libiec61883 --enable-chromaprint --enable-frei0r --enable-libx264 --enable-shared\n",
      "  libavutil      56. 70.100 / 56. 70.100\n",
      "  libavcodec     58.134.100 / 58.134.100\n",
      "  libavformat    58. 76.100 / 58. 76.100\n",
      "  libavdevice    58. 13.100 / 58. 13.100\n",
      "  libavfilter     7.110.100 /  7.110.100\n",
      "  libswscale      5.  9.100 /  5.  9.100\n",
      "  libswresample   3.  9.100 /  3.  9.100\n",
      "  libpostproc    55.  9.100 / 55.  9.100\n",
      "Input #0, avi, from 'data_right_left_up_down_1200/validation/209805.avi':\n",
      "  Metadata:\n",
      "    title           : (C) 2017 Twenty Billion Neurons GmbH, 20BN-Someting-Something-Dataset V2\n",
      "    software        : Lavf58.76.100\n",
      "  Duration: 00:00:02.83, start: 0.000000, bitrate: 265 kb/s\n",
      "  Stream #0:0: Video: mpeg4 (Simple Profile) (FMP4 / 0x34504D46), yuv420p, 427x240 [SAR 1:1 DAR 427:240], 253 kb/s, 12 fps, 12 tbr, 12 tbn, 12 tbc\n",
      "Codec AVOption preset (Configuration preset) specified for output file #0 (data_60_right_left_up_down_1200/validation/209805.avi) has not been used for any stream. The most likely reason is either wrong type (e.g. a video option with no video streams) or that it is a private option of some encoder which was not actually used for any stream.\n",
      "Codec AVOption crf (Select the quality for constant quality mode) specified for output file #0 (data_60_right_left_up_down_1200/validation/209805.avi) has not been used for any stream. The most likely reason is either wrong type (e.g. a video option with no video streams) or that it is a private option of some encoder which was not actually used for any stream.\n",
      "Stream mapping:\n",
      "  Stream #0:0 -> #0:0 (mpeg4 (native) -> mpeg4 (native))\n",
      "Press [q] to stop, [?] for help\n",
      "[mpeg4 @ 0x55edf7381340] Invalid pixel aspect ratio 427/426, limit is 255/255 reducing\n",
      "[mpeg4 @ 0x55edf7381340] too many threads/slices (9), reducing to 8\n",
      "Output #0, avi, to 'data_60_right_left_up_down_1200/validation/209805.avi':\n",
      "  Metadata:\n",
      "    INAM            : (C) 2017 Twenty Billion Neurons GmbH, 20BN-Someting-Something-Dataset V2\n",
      "    software        : Lavf58.76.100\n",
      "    ISFT            : Lavf58.76.100\n",
      "  Stream #0:0: Video: mpeg4 (FMP4 / 0x34504D46), yuv420p(tv, progressive), 213x120 [SAR 255:254 DAR 3621:2032], q=2-31, 200 kb/s, SAR 427:426 DAR 427:240, 12 fps, 12 tbn\n",
      "    Metadata:\n",
      "      encoder         : Lavc58.134.100 mpeg4\n",
      "    Side data:\n",
      "      cpb: bitrate max/min/avg: 0/0/200000 buffer size: 0 vbv_delay: N/A\n",
      "frame=   34 fps=0.0 q=2.0 Lsize=      35kB time=00:00:02.83 bitrate= 101.6kbits/s speed=36.3x    \n",
      "video:29kB audio:0kB subtitle:0kB other streams:0kB global headers:0kB muxing overhead: 22.796955%\n"
     ]
    }
   ],
   "source": [
    "def conver_files_in_folder(source, destination, resolution):\n",
    "    for file in os.listdir(source):\n",
    "        subprocess.call(\n",
    "            f'ffmpeg -i {source + \"/\" + file} -vf scale={resolution[0]}x{resolution[1]} -preset slow -crf 18 {destination + \"/\" + file}',\n",
    "            shell=True\n",
    "        )\n",
    "\n",
    "conver_files_in_folder(DATA_SOURCE + \"/test\", DATA_TARGET + \"/test\", (213, 120))\n",
    "conver_files_in_folder(DATA_SOURCE + \"/train\", DATA_TARGET + \"/train\", (213, 120))\n",
    "conver_files_in_folder(DATA_SOURCE + \"/validation\", DATA_TARGET + \"/validation\", (213, 120))\n"
   ]
  },
  {
   "cell_type": "markdown",
   "metadata": {},
   "source": [
    "### target resolution 2: 54x30"
   ]
  },
  {
   "cell_type": "code",
   "execution_count": null,
   "metadata": {},
   "outputs": [],
   "source": [
    "resolution = (54,30)\n",
    "\n",
    "DATA_SOURCE = \"data_right_left_up_down_1200\"\n",
    "DATA_TARGET = f\"data_{resolution[1]}_right_left_up_down_1200\"\n",
    "\n",
    "if DATA_TARGET not in os.listdir():\n",
    "    os.mkdir(DATA_TARGET)\n",
    "    os.mkdir(DATA_TARGET + \"/test\")\n",
    "    os.mkdir(DATA_TARGET + \"/train\")\n",
    "    os.mkdir(DATA_TARGET + \"/validation\")\n",
    "    status = subprocess.call(f'cp {DATA_SOURCE + \"/indx_df.csv\"} {DATA_TARGET + \"/indx_df.csv\"}', shell=True) \n",
    "\n",
    "def conver_files_in_folder(source, destination, resolution):\n",
    "    for file in os.listdir(source):\n",
    "        subprocess.call(\n",
    "            f'ffmpeg -i {source + \"/\" + file} -vf scale={resolution[0]}x{resolution[1]} -preset slow -crf 18 {destination + \"/\" + file}',\n",
    "            shell=True\n",
    "        )\n",
    "\n",
    "conver_files_in_folder(DATA_SOURCE + \"/test\", DATA_TARGET + \"/test\", (213, 120))\n",
    "conver_files_in_folder(DATA_SOURCE + \"/train\", DATA_TARGET + \"/train\", (213, 120))\n",
    "conver_files_in_folder(DATA_SOURCE + \"/validation\", DATA_TARGET + \"/validation\", (213, 120))"
   ]
  },
  {
   "cell_type": "markdown",
   "metadata": {},
   "source": [
    "### target resolution 3: 27x15\n"
   ]
  },
  {
   "cell_type": "code",
   "execution_count": null,
   "metadata": {},
   "outputs": [],
   "source": [
    "resolution = (27,15)\n",
    "\n",
    "DATA_SOURCE = \"data_right_left_up_down_1200\"\n",
    "DATA_TARGET = f\"data_{resolution[1]}_right_left_up_down_1200\"\n",
    "\n",
    "if DATA_TARGET not in os.listdir():\n",
    "    os.mkdir(DATA_TARGET)\n",
    "    os.mkdir(DATA_TARGET + \"/test\")\n",
    "    os.mkdir(DATA_TARGET + \"/train\")\n",
    "    os.mkdir(DATA_TARGET + \"/validation\")\n",
    "    status = subprocess.call(f'cp {DATA_SOURCE + \"/indx_df.csv\"} {DATA_TARGET + \"/indx_df.csv\"}', shell=True) \n",
    "\n",
    "def conver_files_in_folder(source, destination, resolution):\n",
    "    for file in os.listdir(source):\n",
    "        subprocess.call(\n",
    "            f'ffmpeg -i {source + \"/\" + file} -vf scale={resolution[0]}x{resolution[1]} -preset slow -crf 18 {destination + \"/\" + file}',\n",
    "            shell=True\n",
    "        )\n",
    "\n",
    "\n",
    "conver_files_in_folder(DATA_SOURCE + \"/test\", DATA_TARGET + \"/test\", (213, 120))\n",
    "conver_files_in_folder(DATA_SOURCE + \"/train\", DATA_TARGET + \"/train\", (213, 120))\n",
    "conver_files_in_folder(DATA_SOURCE + \"/validation\", DATA_TARGET + \"/validation\", (213, 120))"
   ]
  },
  {
   "cell_type": "markdown",
   "metadata": {},
   "source": [
    "### target resolution 4: 13x7\n"
   ]
  },
  {
   "cell_type": "code",
   "execution_count": null,
   "metadata": {},
   "outputs": [],
   "source": [
    "resolution = (13,7)\n",
    "\n",
    "DATA_SOURCE = \"data_right_left_up_down_1200\"\n",
    "DATA_TARGET = f\"data_{resolution[1]}_right_left_up_down_1200\"\n",
    "\n",
    "if DATA_TARGET not in os.listdir():\n",
    "    os.mkdir(DATA_TARGET)\n",
    "    os.mkdir(DATA_TARGET + \"/test\")\n",
    "    os.mkdir(DATA_TARGET + \"/train\")\n",
    "    os.mkdir(DATA_TARGET + \"/validation\")\n",
    "    status = subprocess.call(f'cp {DATA_SOURCE + \"/indx_df.csv\"} {DATA_TARGET + \"/indx_df.csv\"}', shell=True) \n",
    "\n",
    "def conver_files_in_folder(source, destination, resolution):\n",
    "    for file in os.listdir(source):\n",
    "        subprocess.call(\n",
    "            f'ffmpeg -i {source + \"/\" + file} -vf scale={resolution[0]}x{resolution[1]} -preset slow -crf 18 {destination + \"/\" + file}',\n",
    "            shell=True\n",
    "        )\n",
    "\n",
    "\n",
    "conver_files_in_folder(DATA_SOURCE + \"/test\", DATA_TARGET + \"/test\", (213, 120))\n",
    "conver_files_in_folder(DATA_SOURCE + \"/train\", DATA_TARGET + \"/train\", (213, 120))\n",
    "conver_files_in_folder(DATA_SOURCE + \"/validation\", DATA_TARGET + \"/validation\", (213, 120))"
   ]
  },
  {
   "cell_type": "markdown",
   "metadata": {},
   "source": [
    "### target resolution 5: 7x4"
   ]
  },
  {
   "cell_type": "code",
   "execution_count": null,
   "metadata": {},
   "outputs": [],
   "source": [
    "resolution = (7,4)\n",
    "\n",
    "DATA_SOURCE = \"data_right_left_up_down_1200\"\n",
    "DATA_TARGET = f\"data_{resolution[1]}_right_left_up_down_1200\"\n",
    "\n",
    "if DATA_TARGET not in os.listdir():\n",
    "    os.mkdir(DATA_TARGET)\n",
    "    os.mkdir(DATA_TARGET + \"/test\")\n",
    "    os.mkdir(DATA_TARGET + \"/train\")\n",
    "    os.mkdir(DATA_TARGET + \"/validation\")\n",
    "    status = subprocess.call(f'cp {DATA_SOURCE + \"/indx_df.csv\"} {DATA_TARGET + \"/indx_df.csv\"}', shell=True) \n",
    "\n",
    "def conver_files_in_folder(source, destination, resolution):\n",
    "    for file in os.listdir(source):\n",
    "        subprocess.call(\n",
    "            f'ffmpeg -i {source + \"/\" + file} -vf scale={resolution[0]}x{resolution[1]} -preset slow -crf 18 {destination + \"/\" + file}',\n",
    "            shell=True\n",
    "        )\n",
    "\n",
    "\n",
    "conver_files_in_folder(DATA_SOURCE + \"/test\", DATA_TARGET + \"/test\", (213, 120))\n",
    "conver_files_in_folder(DATA_SOURCE + \"/train\", DATA_TARGET + \"/train\", (213, 120))\n",
    "conver_files_in_folder(DATA_SOURCE + \"/validation\", DATA_TARGET + \"/validation\", (213, 120))"
   ]
  }
 ],
 "metadata": {
  "kernelspec": {
   "display_name": "Python 3 (ipykernel)",
   "language": "python",
   "name": "python3"
  },
  "language_info": {
   "codemirror_mode": {
    "name": "ipython",
    "version": 3
   },
   "file_extension": ".py",
   "mimetype": "text/x-python",
   "name": "python",
   "nbconvert_exporter": "python",
   "pygments_lexer": "ipython3",
   "version": "3.10.12"
  }
 },
 "nbformat": 4,
 "nbformat_minor": 4
}
